<?xml version="1.0" encoding="UTF-8" standalone="no"?>
<!DOCTYPE svg PUBLIC "-//W3C//DTD SVG 20010904//EN"
              "http://www.w3.org/TR/2001/REC-SVG-20010904/DTD/svg10.dtd">

<svg xmlns="http://www.w3.org/2000/svg"
     width="180.086mm" height="180.086mm"
     viewBox="0 0 2127 2127">
  <path id="Selection"
        fill="none" stroke="black" stroke-width="1"
        d="M 5.00,1001.00
           C 19.57,1000.33 41.22,996.11 55.00,991.31
             65.88,987.51 76.31,982.55 86.00,976.31
             132.04,946.65 151.76,896.10 159.27,844.00
             159.27,844.00 163.04,808.00 163.04,808.00
             163.04,808.00 163.04,797.00 163.04,797.00
             163.04,797.00 164.00,785.00 164.00,785.00
             164.00,785.00 164.00,598.00 164.00,598.00
             164.00,598.00 164.00,512.00 164.00,512.00
             164.00,512.00 164.00,460.00 164.00,460.00
             164.00,460.00 164.91,448.00 164.91,448.00
             164.91,448.00 169.92,401.00 169.92,401.00
             179.14,345.32 197.76,294.47 236.17,252.00
             250.15,236.54 266.57,223.67 284.00,212.34
             306.10,197.99 334.67,186.91 360.00,179.71
             395.94,169.49 439.70,165.00 477.00,165.00
             477.00,165.00 477.00,296.00 477.00,296.00
             458.77,296.84 439.39,299.26 422.00,305.00
             408.31,309.52 398.20,313.75 386.00,321.69
             334.86,355.00 316.67,422.13 316.00,480.00
             316.00,480.00 315.00,495.00 315.00,495.00
             315.00,495.00 315.00,553.00 315.00,553.00
             315.00,553.00 315.00,613.00 315.00,613.00
             315.00,613.00 315.00,698.00 315.00,698.00
             315.00,698.00 315.00,807.00 315.00,807.00
             315.00,807.00 354.00,769.09 354.00,769.09
             354.00,769.09 383.99,741.91 383.99,741.91
             383.99,741.91 397.03,728.09 397.03,728.09
             397.03,728.09 433.00,693.91 433.00,693.91
             433.00,693.91 456.00,672.28 456.00,672.28
             492.92,639.85 532.57,610.84 573.00,582.98
             596.99,566.44 621.21,550.82 647.00,537.22
             663.35,528.59 683.35,519.52 702.00,518.00
             700.21,524.05 694.35,527.69 690.00,532.00
             690.00,532.00 712.00,518.60 712.00,518.60
             712.00,518.60 747.00,497.95 747.00,497.95
             747.00,497.95 796.00,465.81 796.00,465.81
             820.29,450.96 848.55,437.03 875.00,426.45
             926.18,405.98 983.85,390.08 1038.00,379.80
             1038.00,379.80 1104.00,369.72 1104.00,369.72
             1104.00,369.72 1126.00,364.42 1126.00,364.42
             1126.00,364.42 1166.00,357.28 1166.00,357.28
             1166.00,357.28 1256.00,348.83 1256.00,348.83
             1256.00,348.83 1318.00,345.00 1318.00,345.00
             1318.00,345.00 1335.00,344.00 1335.00,344.00
             1335.00,344.00 1393.00,344.00 1393.00,344.00
             1393.00,344.00 1408.00,345.00 1408.00,345.00
             1441.40,345.39 1475.10,348.44 1508.00,354.61
             1508.00,354.61 1531.00,359.71 1531.00,359.71
             1535.70,361.05 1538.11,360.83 1539.00,366.00
             1539.00,366.00 1519.00,367.00 1519.00,367.00
             1519.00,367.00 1502.00,368.00 1502.00,368.00
             1512.16,368.22 1518.35,371.49 1523.00,371.73
             1523.00,371.73 1537.00,370.06 1537.00,370.06
             1537.00,370.06 1555.00,370.06 1555.00,370.06
             1564.06,370.01 1574.16,372.51 1583.00,370.06
             1583.00,370.06 1546.00,361.37 1546.00,361.37
             1546.00,361.37 1462.00,341.80 1462.00,341.80
             1462.00,341.80 1423.00,335.00 1423.00,335.00
             1423.00,335.00 1423.00,338.00 1423.00,338.00
             1423.00,338.00 1373.00,331.28 1373.00,331.28
             1373.00,331.28 1302.00,323.83 1302.00,323.83
             1302.00,323.83 1263.00,321.00 1263.00,321.00
             1263.00,321.00 1263.00,318.00 1263.00,318.00
             1263.00,318.00 1314.00,320.04 1314.00,320.04
             1314.00,320.04 1335.00,321.00 1335.00,321.00
             1331.93,319.93 1332.07,320.07 1331.00,317.00
             1331.00,317.00 1343.00,314.46 1343.00,314.46
             1343.00,314.46 1365.00,312.00 1365.00,312.00
             1365.00,312.00 1389.00,312.00 1389.00,312.00
             1405.84,312.20 1436.76,317.47 1454.00,320.58
             1485.30,326.22 1516.51,332.54 1547.00,341.72
             1547.00,341.72 1596.00,360.14 1596.00,360.14
             1596.00,360.14 1642.00,374.33 1642.00,374.33
             1642.00,374.33 1676.00,385.33 1676.00,385.33
             1676.00,385.33 1695.00,391.20 1695.00,391.20
             1695.00,391.20 1722.00,389.09 1722.00,389.09
             1729.54,389.71 1734.12,393.38 1735.00,401.00
             1735.00,401.00 1753.00,404.54 1753.00,404.54
             1753.00,404.54 1762.00,405.28 1762.00,405.28
             1762.00,405.28 1784.00,408.61 1784.00,408.61
             1784.00,408.61 1803.00,414.00 1803.00,414.00
             1792.82,369.39 1763.69,328.68 1721.00,310.43
             1697.36,300.32 1676.17,298.04 1651.00,296.00
             1651.00,296.00 1651.00,165.00 1651.00,165.00
             1689.32,165.00 1731.04,169.20 1768.00,179.71
             1798.69,188.43 1819.81,197.25 1847.00,214.19
             1861.43,223.18 1874.02,234.01 1886.00,246.00
             1896.61,256.61 1905.35,267.52 1913.67,280.00
             1940.01,319.52 1954.55,368.10 1960.15,415.00
             1960.15,415.00 1963.09,448.00 1963.09,448.00
             1963.09,448.00 1964.00,460.00 1964.00,460.00
             1964.00,460.00 1964.00,509.00 1964.00,509.00
             1964.00,509.00 1964.00,593.00 1964.00,593.00
             1964.00,593.00 1964.00,783.00 1964.00,783.00
             1964.00,783.00 1965.00,798.00 1965.00,798.00
             1965.00,798.00 1965.00,807.00 1965.00,807.00
             1965.00,807.00 1969.59,849.00 1969.59,849.00
             1978.97,904.95 2001.53,956.99 2055.00,983.73
             2076.11,994.29 2099.62,999.11 2123.00,1001.00
             2123.00,1001.00 2123.00,1120.00 2123.00,1120.00
             2093.84,1122.36 2064.76,1129.57 2040.00,1145.69
             1994.39,1175.40 1974.06,1229.02 1967.85,1281.00
             1967.85,1281.00 1964.96,1310.00 1964.96,1310.00
             1964.96,1310.00 1964.96,1324.00 1964.96,1324.00
             1964.96,1324.00 1964.00,1336.00 1964.00,1336.00
             1964.00,1336.00 1964.00,1543.00 1964.00,1543.00
             1964.00,1543.00 1964.00,1618.00 1964.00,1618.00
             1964.00,1618.00 1964.00,1665.00 1964.00,1665.00
             1964.00,1665.00 1963.09,1677.00 1963.09,1677.00
             1963.09,1677.00 1959.27,1716.00 1959.27,1716.00
             1952.94,1759.94 1939.45,1803.82 1914.67,1841.00
             1906.15,1853.78 1897.87,1864.13 1887.00,1875.00
             1874.78,1887.22 1861.71,1898.41 1847.00,1907.58
             1821.41,1923.51 1797.87,1933.08 1769.00,1941.29
             1731.04,1952.08 1690.31,1956.00 1651.00,1956.00
             1651.00,1956.00 1651.00,1827.00 1651.00,1827.00
             1651.00,1827.00 1662.00,1826.09 1662.00,1826.09
             1677.79,1825.01 1692.62,1823.16 1708.00,1819.12
             1720.35,1815.87 1734.13,1810.65 1745.00,1803.94
             1752.05,1799.58 1762.26,1791.91 1767.91,1785.99
             1793.05,1759.65 1803.69,1719.22 1808.28,1684.00
             1808.28,1684.00 1811.09,1655.00 1811.09,1655.00
             1811.09,1655.00 1812.04,1643.00 1812.04,1643.00
             1812.04,1643.00 1812.04,1629.00 1812.04,1629.00
             1812.04,1629.00 1813.00,1617.00 1813.00,1617.00
             1813.00,1617.00 1813.00,1377.00 1813.00,1377.00
             1813.00,1322.29 1809.81,1265.18 1825.00,1212.00
             1832.98,1184.07 1840.95,1162.55 1857.08,1138.00
             1877.24,1107.32 1904.79,1085.66 1938.00,1070.70
             1945.72,1067.22 1956.81,1062.87 1965.00,1061.00
             1965.00,1061.00 1965.00,1058.00 1965.00,1058.00
             1936.90,1051.59 1901.48,1028.92 1881.28,1008.72
             1869.76,997.19 1865.47,990.23 1856.00,978.00
             1848.37,1004.12 1835.61,1028.32 1824.31,1053.00
             1824.31,1053.00 1753.26,1203.00 1753.26,1203.00
             1753.26,1203.00 1738.74,1234.00 1738.74,1234.00
             1738.74,1234.00 1692.74,1326.00 1692.74,1326.00
             1692.74,1326.00 1648.86,1407.00 1648.86,1407.00
             1648.86,1407.00 1617.58,1463.00 1617.58,1463.00
             1617.58,1463.00 1569.05,1542.00 1569.05,1542.00
             1522.18,1615.90 1472.51,1687.65 1419.12,1757.00
             1394.66,1788.76 1368.74,1819.31 1341.83,1849.00
             1341.83,1849.00 1321.17,1869.00 1321.17,1869.00
             1307.76,1883.82 1289.63,1909.08 1268.00,1910.48
             1262.53,1910.83 1248.64,1904.86 1243.00,1902.60
             1221.40,1893.96 1204.71,1885.41 1185.00,1873.05
             1172.09,1864.95 1159.65,1855.92 1148.00,1846.08
             1144.82,1843.39 1135.48,1834.38 1134.02,1830.91
             1129.58,1820.39 1132.03,1812.38 1134.85,1802.00
             1134.85,1802.00 1154.72,1750.00 1154.72,1750.00
             1154.72,1750.00 1196.31,1656.00 1196.31,1656.00
             1196.31,1656.00 1248.75,1550.00 1248.75,1550.00
             1248.75,1550.00 1281.69,1487.00 1281.69,1487.00
             1281.69,1487.00 1314.86,1425.00 1314.86,1425.00
             1314.86,1425.00 1402.20,1274.00 1402.20,1274.00
             1402.20,1274.00 1498.58,1114.00 1498.58,1114.00
             1498.58,1114.00 1559.31,1003.00 1559.31,1003.00
             1559.31,1003.00 1580.74,965.00 1580.74,965.00
             1580.74,965.00 1596.63,932.00 1596.63,932.00
             1596.63,932.00 1612.19,905.00 1612.19,905.00
             1618.42,892.27 1625.97,867.13 1629.75,853.00
             1629.75,853.00 1637.18,824.00 1637.18,824.00
             1637.18,824.00 1639.28,812.00 1639.28,812.00
             1639.28,812.00 1642.83,798.00 1642.83,798.00
             1643.88,790.70 1645.03,783.38 1645.00,776.00
             1644.96,768.06 1642.07,759.53 1643.21,752.00
             1643.98,746.93 1648.66,739.86 1651.00,735.00
             1636.52,730.02 1639.64,712.99 1644.00,702.00
             1644.00,702.00 1633.00,699.91 1633.00,699.91
             1622.98,695.64 1605.07,677.07 1597.00,669.00
             1592.50,664.50 1590.03,662.18 1586.15,657.00
             1584.15,654.32 1582.60,651.17 1578.96,650.74
             1578.96,650.74 1554.00,654.80 1554.00,654.80
             1554.00,654.80 1502.00,665.58 1502.00,665.58
             1441.71,678.89 1395.49,692.17 1337.00,711.67
             1337.00,711.67 1278.00,730.34 1278.00,730.34
             1267.01,733.85 1241.70,741.50 1231.00,742.00
             1233.54,733.78 1241.04,734.42 1243.40,728.82
             1243.40,728.82 1244.46,721.00 1244.46,721.00
             1245.29,716.34 1247.41,709.49 1249.05,705.00
             1258.76,678.52 1274.10,649.09 1294.00,629.00
             1279.26,630.19 1244.76,632.38 1232.00,635.75
             1215.31,640.17 1185.69,655.98 1169.00,663.69
             1119.12,686.76 1047.48,729.68 1002.00,761.02
             1002.00,761.02 945.00,801.15 945.00,801.15
             945.00,801.15 913.00,824.00 913.00,824.00
             919.51,829.88 916.88,834.35 910.00,838.20
             910.00,838.20 874.00,856.04 874.00,856.04
             874.00,856.04 844.00,880.35 844.00,880.35
             838.89,884.29 833.28,889.30 827.00,891.00
             827.89,883.13 834.95,873.97 840.00,868.00
             840.00,868.00 818.00,875.66 818.00,875.66
             818.00,875.66 773.00,891.31 773.00,891.31
             773.00,891.31 664.00,930.05 664.00,930.05
             664.00,930.05 605.97,951.00 605.97,951.00
             609.84,956.45 612.77,964.61 605.97,969.26
             602.03,971.93 587.65,972.40 582.00,973.27
             582.00,973.27 534.00,984.71 534.00,984.71
             513.18,990.63 472.35,1001.40 454.00,1009.01
             436.38,1016.32 401.69,1036.46 385.00,1047.05
             385.00,1047.05 303.00,1100.67 303.00,1100.67
             303.00,1100.67 277.00,1118.33 277.00,1118.33
             272.46,1121.40 268.13,1125.01 263.00,1127.00
             271.14,1138.49 279.80,1151.19 285.69,1164.00
             303.22,1202.15 312.21,1244.16 314.04,1286.00
             314.04,1286.00 315.00,1299.00 315.00,1299.00
             315.00,1299.00 315.00,1373.00 315.00,1373.00
             315.00,1373.00 315.00,1539.00 315.00,1539.00
             315.00,1539.00 315.00,1623.00 315.00,1623.00
             315.00,1623.00 316.00,1638.00 316.00,1638.00
             316.00,1638.00 316.00,1646.00 316.00,1646.00
             316.00,1646.00 316.91,1656.00 316.91,1656.00
             316.91,1656.00 318.85,1678.00 318.85,1678.00
             323.46,1716.58 334.03,1761.13 363.00,1788.96
             390.36,1815.24 428.44,1823.58 465.00,1826.09
             465.00,1826.09 477.00,1827.00 477.00,1827.00
             477.00,1827.00 477.00,1956.00 477.00,1956.00
             438.75,1956.00 395.89,1951.78 359.00,1941.29
             334.20,1934.24 305.68,1923.27 284.00,1909.31
             264.99,1897.07 249.43,1884.89 234.17,1868.00
             195.16,1824.80 174.68,1766.12 167.85,1709.00
             167.85,1709.00 164.91,1676.00 164.91,1676.00
             164.91,1676.00 164.00,1664.00 164.00,1664.00
             164.00,1664.00 164.00,1613.00 164.00,1613.00
             164.00,1613.00 164.00,1531.00 164.00,1531.00
             164.00,1531.00 164.00,1330.00 164.00,1330.00
             164.00,1330.00 163.00,1315.00 163.00,1315.00
             163.00,1315.00 163.00,1311.00 163.00,1311.00
             162.94,1299.37 160.38,1280.71 158.41,1269.00
             149.85,1217.97 129.34,1170.02 83.00,1142.45
             59.32,1128.36 32.21,1122.20 5.00,1120.00
             5.00,1120.00 5.00,1001.00 5.00,1001.00 Z
           M 1607.00,376.00
           C 1607.00,376.00 1606.00,377.00 1606.00,377.00
             1608.33,378.66 1612.64,382.02 1615.00,383.08
             1619.94,385.31 1637.04,385.97 1642.00,384.00
             1642.00,384.00 1607.00,376.00 1607.00,376.00 Z
           M 1495.00,387.00
           C 1495.00,387.00 1478.00,385.28 1478.00,385.28
             1478.00,385.28 1418.00,378.00 1418.00,378.00
             1418.00,378.00 1388.00,378.00 1388.00,378.00
             1388.00,378.00 1373.00,377.00 1373.00,377.00
             1373.00,377.00 1350.00,377.00 1350.00,377.00
             1350.00,377.00 1319.00,381.72 1319.00,381.72
             1319.00,381.72 1294.00,384.84 1294.00,384.84
             1294.00,384.84 1279.00,387.00 1279.00,387.00
             1279.00,387.00 1292.00,388.00 1292.00,388.00
             1292.00,388.00 1292.00,391.00 1292.00,391.00
             1275.73,391.00 1219.90,398.23 1201.00,400.72
             1164.56,405.51 1120.40,411.64 1085.00,420.37
             1047.85,429.54 1011.90,442.82 976.00,455.95
             918.23,477.08 861.04,500.23 806.00,527.75
             806.00,527.75 779.00,541.31 779.00,541.31
             703.22,582.29 632.44,631.72 567.00,687.73
             567.00,687.73 510.17,739.28 510.17,739.28
             510.17,739.28 501.00,749.00 501.00,749.00
             501.00,749.00 481.09,769.00 481.09,769.00
             481.09,769.00 447.85,807.00 447.85,807.00
             447.85,807.00 418.83,839.00 418.83,839.00
             414.51,843.78 409.78,847.72 406.00,853.00
             406.00,853.00 410.00,853.00 410.00,853.00
             408.04,859.69 397.13,869.59 392.09,875.00
             392.09,875.00 374.72,894.00 374.72,894.00
             371.18,898.93 372.32,901.14 368.77,904.79
             364.70,908.97 362.03,907.51 356.00,913.06
             356.00,913.06 325.00,943.96 325.00,943.96
             325.00,943.96 300.00,967.04 300.00,967.04
             300.00,967.04 265.84,1003.00 265.84,1003.00
             258.62,1011.07 239.98,1031.15 235.00,1039.00
             235.00,1039.00 280.00,1023.05 280.00,1023.05
             280.00,1023.05 334.00,1003.99 334.00,1003.99
             334.00,1003.99 358.00,992.31 358.00,992.31
             358.00,992.31 402.00,973.80 402.00,973.80
             402.00,973.80 443.00,957.80 443.00,957.80
             450.41,954.89 458.09,950.71 466.00,950.00
             464.83,956.81 459.67,957.10 454.00,959.78
             447.17,963.01 433.29,970.17 428.00,975.00
             428.00,975.00 459.00,967.37 459.00,967.37
             459.00,967.37 490.00,959.14 490.00,959.14
             490.00,959.14 518.00,948.05 518.00,948.05
             518.00,948.05 545.00,938.58 545.00,938.58
             545.00,938.58 574.00,927.00 574.00,927.00
             626.14,906.15 679.12,887.51 732.00,868.69
             732.00,868.69 769.00,856.66 769.00,856.66
             769.00,856.66 841.00,834.42 841.00,834.42
             841.00,834.42 872.00,826.42 872.00,826.42
             876.35,825.46 885.59,824.24 889.00,822.35
             889.00,822.35 904.00,810.88 904.00,810.88
             904.00,810.88 934.00,788.71 934.00,788.71
             970.52,762.57 1007.75,736.88 1048.00,716.75
             1048.00,716.75 1134.00,670.78 1134.00,670.78
             1159.38,657.39 1185.60,645.22 1212.00,634.00
             1212.00,634.00 1230.00,627.19 1230.00,627.19
             1230.00,627.19 1249.00,619.29 1249.00,619.29
             1260.79,614.80 1258.48,612.94 1273.00,613.00
             1284.08,613.05 1286.38,615.54 1296.00,619.00
             1296.00,619.00 1295.00,623.00 1295.00,623.00
             1296.64,623.76 1298.88,624.49 1299.65,626.30
             1300.46,628.20 1299.26,631.20 1298.55,633.00
             1298.55,633.00 1291.22,648.00 1291.22,648.00
             1281.45,666.53 1261.55,701.58 1257.00,721.00
             1262.86,718.83 1265.64,716.07 1271.00,713.26
             1271.00,713.26 1298.00,700.81 1298.00,700.81
             1362.57,675.80 1414.85,658.83 1483.00,645.20
             1506.60,640.48 1548.75,633.07 1572.00,633.00
             1572.00,633.00 1565.46,618.00 1565.46,618.00
             1565.46,618.00 1554.87,583.00 1554.87,583.00
             1553.44,577.27 1550.75,566.70 1551.18,561.00
             1551.18,561.00 1553.49,549.00 1553.49,549.00
             1554.11,543.71 1549.74,538.52 1547.15,534.00
             1547.15,534.00 1538.04,516.17 1538.04,516.17
             1538.04,516.17 1524.76,502.00 1524.76,502.00
             1524.76,502.00 1513.61,484.63 1513.61,484.63
             1511.75,482.92 1505.44,479.38 1503.00,478.65
             1499.16,477.49 1485.36,477.54 1473.00,472.55
             1464.22,469.00 1455.88,463.67 1449.29,456.83
             1445.10,452.48 1441.56,445.70 1437.90,442.90
             1437.90,442.90 1424.00,435.14 1424.00,435.14
             1424.00,435.14 1387.00,415.75 1387.00,415.75
             1378.63,411.57 1368.24,407.94 1364.00,399.00
             1364.00,399.00 1381.00,402.25 1381.00,402.25
             1390.72,403.84 1411.42,406.11 1421.00,406.00
             1435.22,405.83 1457.34,400.89 1471.00,396.50
             1477.66,394.37 1489.25,390.54 1495.00,387.00 Z
           M 1669.00,390.00
           C 1669.00,390.00 1668.00,390.00 1668.00,390.00
             1668.00,390.00 1669.00,391.00 1669.00,391.00
             1669.00,391.00 1669.00,390.00 1669.00,390.00 Z
           M 1032.00,402.00
           C 1032.00,402.00 993.00,411.58 993.00,411.58
             993.00,411.58 925.00,431.67 925.00,431.67
             925.00,431.67 897.00,441.58 897.00,441.58
             897.00,441.58 881.00,449.00 881.00,449.00
             881.00,449.00 914.00,437.74 914.00,437.74
             914.00,437.74 985.00,416.34 985.00,416.34
             985.00,416.34 1016.00,407.29 1016.00,407.29
             1016.00,407.29 1032.00,402.00 1032.00,402.00 Z
           M 1901.00,539.00
           C 1895.43,536.05 1894.39,530.60 1892.32,525.00
             1892.32,525.00 1882.00,495.00 1882.00,495.00
             1880.62,490.87 1878.52,482.61 1874.78,480.30
             1874.78,480.30 1856.00,474.58 1856.00,474.58
             1856.00,474.58 1835.00,468.66 1835.00,468.66
             1827.70,466.31 1824.92,464.10 1817.00,464.00
             1796.85,463.76 1776.55,457.68 1758.00,449.99
             1758.00,449.99 1736.00,439.79 1736.00,439.79
             1736.00,439.79 1721.00,436.84 1721.00,436.84
             1717.56,435.90 1713.32,433.78 1710.00,433.79
             1706.28,433.79 1700.12,436.13 1689.00,436.00
             1677.89,435.87 1673.20,431.73 1663.00,432.02
             1655.53,432.22 1653.67,435.30 1647.00,435.54
             1647.00,435.54 1631.00,434.32 1631.00,434.32
             1631.00,434.32 1610.00,435.00 1610.00,435.00
             1595.66,435.02 1582.02,437.86 1568.00,440.39
             1563.34,441.23 1552.20,443.28 1548.00,442.20
             1538.61,439.77 1527.63,431.18 1518.00,435.00
             1518.00,435.00 1556.00,456.00 1556.00,456.00
             1567.70,462.72 1577.85,468.00 1586.32,479.00
             1593.29,488.05 1596.21,499.34 1599.67,510.00
             1602.17,517.70 1605.29,526.88 1604.96,535.00
             1604.60,543.83 1600.28,550.52 1599.33,556.00
             1598.23,562.28 1599.94,568.69 1600.00,575.00
             1600.00,575.00 1602.00,575.00 1602.00,575.00
             1602.00,575.00 1602.00,570.00 1602.00,570.00
             1607.05,573.17 1606.65,582.39 1609.00,588.00
             1615.48,581.27 1618.46,591.95 1620.69,597.00
             1620.69,597.00 1626.20,612.00 1626.20,612.00
             1627.25,614.65 1630.06,620.59 1630.35,623.00
             1630.93,627.97 1627.09,630.85 1631.00,640.00
             1634.50,631.52 1630.06,625.28 1632.89,618.00
             1634.53,613.78 1638.41,610.93 1642.91,612.98
             1644.34,613.63 1645.79,614.99 1647.00,616.00
             1647.61,608.70 1651.00,598.06 1655.10,592.00
             1656.66,589.71 1660.18,584.99 1663.07,588.37
             1664.83,590.44 1664.97,595.36 1665.00,598.00
             1665.00,598.00 1665.00,631.00 1665.00,631.00
             1672.12,635.16 1672.53,647.56 1674.00,655.00
             1674.93,659.70 1674.67,662.40 1679.00,665.00
             1679.07,657.58 1680.80,649.96 1685.53,644.02
             1687.41,641.66 1691.18,637.78 1694.28,640.62
             1696.34,642.51 1696.75,647.34 1697.05,650.00
             1697.05,650.00 1699.00,675.00 1699.00,675.00
             1699.00,675.00 1713.00,669.00 1713.00,669.00
             1713.00,669.00 1713.00,673.00 1713.00,673.00
             1713.00,673.00 1726.00,672.00 1726.00,672.00
             1726.00,672.00 1744.00,673.00 1744.00,673.00
             1744.00,673.00 1757.00,673.00 1757.00,673.00
             1757.00,673.00 1780.00,675.00 1780.00,675.00
             1780.00,675.00 1795.00,674.00 1795.00,674.00
             1795.00,674.00 1810.00,674.79 1810.00,674.79
             1824.00,674.05 1823.75,670.99 1841.00,672.84
             1846.16,673.39 1846.68,673.12 1852.00,674.72
             1864.82,678.57 1871.52,685.68 1882.00,692.96
             1882.00,692.96 1901.00,703.48 1901.00,703.48
             1901.00,703.48 1910.00,710.00 1910.00,710.00
             1914.33,705.67 1919.11,701.40 1922.10,696.00
             1926.05,688.85 1931.37,664.16 1930.91,656.00
             1930.91,656.00 1930.00,640.00 1930.00,640.00
             1930.00,640.00 1927.00,640.00 1927.00,640.00
             1927.00,640.00 1922.16,602.00 1922.16,602.00
             1919.83,580.15 1918.16,566.00 1910.69,545.00
             1907.20,535.18 1907.04,533.08 1901.00,524.00
             1901.00,524.00 1901.00,539.00 1901.00,539.00 Z
           M 871.00,453.00
           C 871.00,453.00 870.00,453.00 870.00,453.00
             870.00,453.00 871.00,454.00 871.00,454.00
             871.00,454.00 871.00,453.00 871.00,453.00 Z
           M 869.00,454.00
           C 869.00,454.00 868.00,454.00 868.00,454.00
             868.00,454.00 869.00,455.00 869.00,455.00
             869.00,455.00 869.00,454.00 869.00,454.00 Z
           M 1101.00,467.00
           C 1101.00,467.00 1078.00,471.79 1078.00,471.79
             1042.55,479.33 1007.73,487.86 973.00,498.28
             884.99,524.68 804.65,556.63 726.00,604.81
             696.85,622.67 666.90,643.57 641.00,665.87
             634.80,671.21 627.89,677.23 623.24,684.00
             622.23,685.48 619.99,690.37 617.73,688.83
             615.05,687.26 617.00,682.01 617.73,680.00
             621.00,673.10 629.45,664.26 635.00,659.09
             659.18,636.56 693.54,612.48 722.00,595.40
             722.00,595.40 769.00,568.31 769.00,568.31
             831.73,534.38 904.47,508.11 973.00,488.58
             998.40,481.34 1024.00,475.27 1050.00,470.58
             1063.12,468.21 1088.29,464.01 1101.00,464.00
             1101.00,464.00 1101.00,467.00 1101.00,467.00 Z
           M 1900.00,518.00
           C 1900.00,518.00 1899.00,518.00 1899.00,518.00
             1899.00,518.00 1900.00,519.00 1900.00,519.00
             1900.00,519.00 1900.00,518.00 1900.00,518.00 Z
           M 687.00,534.00
           C 687.00,534.00 686.00,534.00 686.00,534.00
             686.00,534.00 687.00,535.00 687.00,535.00
             687.00,535.00 687.00,534.00 687.00,534.00 Z
           M 1367.00,719.00
           C 1368.75,714.10 1374.42,713.51 1379.00,712.00
             1379.00,712.00 1417.00,703.20 1417.00,703.20
             1417.00,703.20 1517.00,680.63 1517.00,680.63
             1531.70,676.91 1564.41,667.30 1578.00,667.00
             1576.23,672.03 1569.66,673.61 1565.00,675.31
             1565.00,675.31 1529.00,687.34 1529.00,687.34
             1498.26,696.94 1466.65,704.69 1435.00,710.61
             1412.52,714.82 1389.93,719.00 1367.00,719.00 Z
           M 841.00,867.00
           C 841.00,867.00 840.00,867.00 840.00,867.00
             840.00,867.00 841.00,868.00 841.00,868.00
             841.00,868.00 841.00,867.00 841.00,867.00 Z
           M 1841.00,902.00
           C 1832.42,896.23 1827.80,892.28 1818.00,887.90
             1809.51,884.10 1798.11,881.57 1789.00,879.50
             1776.61,876.68 1760.66,873.15 1748.00,873.00
             1733.45,872.83 1728.52,870.91 1715.00,869.28
             1715.00,869.28 1706.00,868.72 1706.00,868.72
             1706.00,868.72 1690.00,867.00 1690.00,867.00
             1676.93,866.85 1673.78,866.26 1661.00,870.17
             1658.60,870.91 1653.42,871.89 1651.85,873.58
             1650.43,875.12 1646.96,887.13 1646.00,890.00
             1646.00,890.00 1632.14,926.00 1632.14,926.00
             1614.16,966.39 1594.01,1005.72 1573.74,1045.00
             1529.72,1130.31 1478.70,1211.52 1431.42,1295.00
             1390.22,1367.76 1350.22,1441.06 1311.22,1515.00
             1311.22,1515.00 1288.26,1558.00 1288.26,1558.00
             1288.26,1558.00 1266.74,1601.00 1266.74,1601.00
             1266.74,1601.00 1228.25,1676.00 1228.25,1676.00
             1228.25,1676.00 1184.75,1765.00 1184.75,1765.00
             1184.75,1765.00 1175.75,1784.00 1175.75,1784.00
             1175.75,1784.00 1162.24,1810.00 1162.24,1810.00
             1162.24,1810.00 1153.33,1825.96 1153.33,1825.96
             1153.33,1828.68 1157.09,1831.32 1159.00,1832.92
             1159.00,1832.92 1179.00,1848.42 1179.00,1848.42
             1198.77,1862.61 1219.92,1875.09 1242.00,1885.31
             1250.32,1889.16 1263.41,1895.68 1272.00,1898.00
             1276.88,1888.59 1279.84,1881.07 1286.03,1872.00
             1286.03,1872.00 1311.22,1840.00 1311.22,1840.00
             1311.22,1840.00 1319.02,1828.00 1319.02,1828.00
             1319.02,1828.00 1350.28,1783.00 1350.28,1783.00
             1350.28,1783.00 1424.98,1677.00 1424.98,1677.00
             1424.98,1677.00 1490.33,1579.00 1490.33,1579.00
             1531.87,1516.39 1570.27,1451.59 1606.86,1386.00
             1606.86,1386.00 1655.74,1296.00 1655.74,1296.00
             1655.74,1296.00 1727.25,1153.00 1727.25,1153.00
             1727.25,1153.00 1793.25,1020.00 1793.25,1020.00
             1793.25,1020.00 1809.74,988.00 1809.74,988.00
             1809.74,988.00 1829.69,937.00 1829.69,937.00
             1833.20,927.18 1839.02,911.84 1841.00,902.00 Z" />
</svg>
